HIERARCHY
ROOT Hips
{
	OFFSET -3.958830 18.904000 13.208200
	CHANNELS 6 Xposition Yposition Zposition Zrotation Yrotation Xrotation 
	JOINT LHipJoint
	{
		OFFSET 0.000000 0.000000 0.000000
		CHANNELS 3 Zrotation Yrotation Xrotation
		JOINT LeftUpLeg
		{
			OFFSET 1.800000 -1.400000 0.085000
			CHANNELS 3 Zrotation Yrotation Xrotation
			JOINT LeftLeg
			{
				OFFSET 2.215000 -6.000000 0.000000
				CHANNELS 3 Zrotation Yrotation Xrotation
				JOINT LeftFoot
				{
					OFFSET 2.500000 -6.900000 0.000000
					CHANNELS 3 Zrotation Yrotation Xrotation
					JOINT LeftToeBase
					{
						OFFSET 0.200000 -0.500000 1.950000
						CHANNELS 3 Zrotation Yrotation Xrotation
						End Site
						{
							OFFSET 0.000000 0.000000 0.000000
						}
					}
				}
			}
		}
	}
	JOINT RHipJoint
	{
		OFFSET 0.000000 0.000000 0.000000
		CHANNELS 3 Zrotation Yrotation Xrotation
		JOINT RightUpLeg
		{
			OFFSET -1.800000 -1.400000 0.085000
			CHANNELS 3 Zrotation Yrotation Xrotation
			JOINT RightLeg
			{
				OFFSET -2.215000 -6.000000 0.000000
				CHANNELS 3 Zrotation Yrotation Xrotation
				JOINT RightFoot
				{
					OFFSET -2.500000 -6.900000 0.000000
					CHANNELS 3 Zrotation Yrotation Xrotation
					JOINT RightToeBase
					{
						OFFSET -0.200000 -0.500000 1.950000
						CHANNELS 3 Zrotation Yrotation Xrotation
						End Site
						{
							OFFSET 0.000000 0.000000 0.000000
						}
					}
				}
			}
		}
	}
	JOINT LowerBack
	{
		OFFSET 0.000000 0.000000 0.000000
		CHANNELS 3 Zrotation Yrotation Xrotation
		JOINT Spine
		{
			OFFSET -0.087000 1.940000 -0.288900
			CHANNELS 3 Zrotation Yrotation Xrotation
			JOINT Spine1
			{
				OFFSET 0.000000 1.950000 0.060000
				CHANNELS 3 Zrotation Yrotation Xrotation
				JOINT Neck
				{
					OFFSET 0.000000 0.000000 0.000000
					CHANNELS 3 Zrotation Yrotation Xrotation
					JOINT Neck1
					{
						OFFSET 0.000000 1.600000 0.340000
						CHANNELS 3 Zrotation Yrotation Xrotation
						JOINT Head
						{
							OFFSET 0.000000 1.667000 -0.240000
							CHANNELS 3 Zrotation Yrotation Xrotation
							End Site
							{
								OFFSET 0.000000 0.000000 0.000000
							}
						}
					}
				}
				JOINT LeftShoulder
				{
					OFFSET 0.000000 0.000000 0.000000
					CHANNELS 3 Zrotation Yrotation Xrotation
					JOINT LeftArm
					{
						OFFSET 2.700000 1.550000 -0.730000
						CHANNELS 3 Zrotation Yrotation Xrotation
						JOINT LeftForeArm
						{
							OFFSET 5.450000 0.000000 0.000000
							CHANNELS 3 Zrotation Yrotation Xrotation
							JOINT LeftHand
							{
								OFFSET 3.450000 0.000000 0.000000
								CHANNELS 3 Zrotation Yrotation Xrotation
								JOINT LeftHandIndex1
								{
									OFFSET 0.750000 0.000000 0.000000
									CHANNELS 3 Zrotation Yrotation Xrotation
									End Site
									{
										OFFSET 0.000000 0.000000 0.000000
									}
								}
							}
						}
					}
				}
				JOINT RightShoulder
				{
					OFFSET 0.000000 0.000000 0.000000
					CHANNELS 3 Zrotation Yrotation Xrotation
					JOINT RightArm
					{
						OFFSET -2.700000 1.550000 -0.730000
						CHANNELS 3 Zrotation Yrotation Xrotation
						JOINT RightForeArm
						{
							OFFSET -5.450000 0.000000 0.000000
							CHANNELS 3 Zrotation Yrotation Xrotation
							JOINT RightHand
							{
								OFFSET -3.450000 0.000000 0.000000
								CHANNELS 3 Zrotation Yrotation Xrotation
								JOINT RightHandIndex1
								{
									OFFSET -0.750000 0.000000 0.000000
									CHANNELS 3 Zrotation Yrotation Xrotation
									End Site
									{
										OFFSET 0.000000 0.000000 0.000000
									}
								}
							}
						}
					}
				}
			}
		}
	}
}
MOTION
Frames: 13
Frame Time: 0.016667
0.475700 16.410360 -0.535850 -1.203299 -0.699208 5.215967 -15.160654 13.287214 2.794504 3.928694 -1.278235 -11.530667 -2.714473 3.770635 5.935500 -0.114441 2.987921 3.552477 0.001190 -0.058640 0.038530 18.230107 -11.052626 2.684544 -8.356430 0.462236 -12.500548 2.836351 -3.115357 5.163458 0.019007 -2.889747 3.376800 -0.003510 0.114980 0.057010 -3.520608 -1.339365 -7.066641 5.417737 -0.210736 4.186443 -1.331565 -0.171057 0.129419 1.710393 -1.433868 -5.099346 -4.331265 3.045892 37.352289 -1.162660 3.287400 0.763210 -35.747316 -4.047757 1.300673 -53.416482 -2.006456 -3.611558 -10.712999 -13.334294 0.090077 -3.814773 3.003008 0.029000 0.103810 -0.057050 0.013240 32.747669 5.906187 2.147513 55.759672 2.762929 -5.630788 10.946963 15.806954 0.013577 2.617200 -1.290089 -0.068130 0.024030 0.025750 -0.036570 
0.476120 16.410020 -0.536100 -1.165314 -0.658670 5.248532 -15.162613 13.286636 2.798370 3.883463 -1.286372 -11.555029 -2.727721 3.762749 5.868579 -0.116722 2.986619 3.553201 -0.000390 -0.059920 0.038870 18.229742 -11.044374 2.680414 -8.390646 0.463385 -12.518891 2.871425 -3.122278 5.173373 0.019904 -2.891064 3.375634 -0.003220 0.115600 0.057290 -3.518347 -1.357434 -7.063015 5.406355 -0.243068 4.171069 -1.406821 -0.200985 0.170950 1.720064 -1.490238 -5.099221 -4.421843 3.152228 37.235023 -1.286990 3.449860 0.735070 -35.658626 -4.035739 1.278746 -53.389845 -2.080672 -3.565319 -10.752868 -13.255096 0.092721 -3.818313 3.002071 0.028810 0.105820 -0.057740 0.011990 32.630525 5.899755 2.155837 55.956875 2.775846 -5.661917 10.978862 15.899732 0.013575 2.616402 -1.289986 -0.069800 0.024180 0.026910 -0.038000 
0.478570 16.408850 -0.538150 -1.137987 -0.653570 5.291578 -15.166301 13.291985 2.806513 3.895083 -1.295947 -11.591340 -2.836680 3.771066 5.770050 -0.115974 2.990246 3.551123 0.004570 -0.053900 0.044160 18.227168 -11.023721 2.675665 -8.484089 0.472261 -12.577642 2.982868 -3.134048 5.167677 0.017958 -2.887585 3.375521 -0.000170 0.112300 0.057440 -3.510259 -1.408586 -7.063621 5.429472 -0.358750 4.206792 -1.427889 -0.312920 0.144388 1.689996 -1.681975 -5.036350 -4.775513 3.429754 37.181446 -1.391310 3.708230 0.589520 -35.597106 -3.829671 1.189956 -53.463370 -2.095289 -3.558033 -10.678903 -13.209009 0.082457 -3.818350 3.000087 0.030730 0.104310 -0.054390 0.012540 32.618084 5.772377 2.080493 56.050657 2.844893 -5.693806 10.819306 15.974280 -0.002624 2.617199 -1.288201 -0.068930 0.024510 0.023840 -0.039640 
0.484420 16.409330 -0.539020 -1.161029 -0.661290 5.302032 -15.163341 13.294227 2.811093 3.957881 -1.305958 -11.663280 -3.009385 3.808192 5.806319 -0.115141 3.000843 3.546536 0.005730 -0.053460 0.047360 18.228773 -11.010525 2.679728 -8.596685 0.476544 -12.569466 3.104022 -3.145119 5.069788 0.015514 -2.892278 3.373767 -0.000390 0.110090 0.057150 -3.517521 -1.436856 -7.073805 5.592530 -0.386684 4.259452 -1.464203 -0.332205 0.034307 1.693838 -1.825116 -4.988734 -5.069009 3.586180 37.274857 -1.526050 3.860110 0.590550 -35.787581 -3.715254 1.083167 -53.455319 -2.149085 -3.505006 -10.354555 -12.958715 0.043496 -3.819521 2.994703 0.033050 0.103330 -0.052570 0.012210 32.773290 5.715712 2.086794 55.930414 2.711736 -5.788743 10.456416 16.042988 -0.037674 2.616406 -1.285372 -0.069400 0.024430 0.022530 -0.041310 
0.479370 16.410130 -0.537640 -1.206460 -0.660385 5.329325 -15.170575 13.298421 2.814953 4.186342 -1.302101 -11.696929 -3.292426 3.869476 5.781045 -0.108605 3.026442 3.535712 0.003850 -0.054680 0.046610 18.222461 -10.988670 2.684694 -8.492553 0.488851 -12.541964 3.114156 -3.125606 4.932142 0.015243 -2.886087 3.377013 -0.002040 0.108590 0.056220 -3.497063 -1.480097 -7.082817 5.508743 -0.384416 4.263086 -1.363863 -0.331696 -0.055290 1.656980 -1.947229 -4.985175 -5.330357 3.815272 37.400787 -1.592720 4.085310 0.716190 -35.860822 -3.650806 1.044820 -53.379219 -2.095519 -3.483192 -10.127815 -12.745613 0.018987 -3.820582 2.993502 0.032780 0.103180 -0.052280 0.011390 32.932365 5.726994 2.099372 55.872933 2.603430 -5.832311 10.178946 15.919650 -0.070470 2.618432 -1.283540 -0.069290 0.022200 0.022540 -0.042020 
0.478070 16.409020 -0.535010 -1.243515 -0.678852 5.355645 -15.169874 13.295210 2.816932 4.383075 -1.296201 -11.702033 -3.569163 3.931011 5.775047 -0.102264 3.053844 3.526047 0.000430 -0.059210 0.045480 18.223880 -10.976887 2.687905 -8.448915 0.494068 -12.504097 3.113938 -3.114091 4.819746 0.014379 -2.885519 3.378125 -0.005560 0.109340 0.056050 -3.499357 -1.494339 -7.087433 5.547250 -0.397474 4.227126 -1.404983 -0.344042 -0.103416 1.648777 -2.023269 -5.002895 -5.490064 3.981997 37.544753 -1.631690 4.248400 0.883050 -35.855735 -3.625872 1.043152 -53.300814 -2.006107 -3.476515 -9.858851 -12.504819 -0.012026 -3.822562 2.990357 0.033490 0.103650 -0.052550 0.010840 32.933406 5.737523 2.104866 56.047264 2.554650 -5.863865 9.725843 15.748207 -0.120126 2.622438 -1.279385 -0.070290 0.020890 0.023320 -0.042430 
0.476540 16.408610 -0.532690 -1.235076 -0.699619 5.411344 -15.172114 13.291078 2.822240 4.482251 -1.286447 -11.640604 -3.776525 3.963520 5.652733 -0.093592 3.073462 3.519865 -0.002460 -0.060770 0.042020 18.223761 -10.964149 2.683085 -8.465477 0.503395 -12.563676 3.131131 -3.110085 4.807211 0.016180 -2.880833 3.379998 -0.007700 0.111340 0.056170 -3.495761 -1.512092 -7.083507 5.517193 -0.409945 4.162085 -1.436759 -0.358297 -0.146614 1.613263 -2.154986 -4.984123 -5.741786 4.202871 37.585348 -1.629870 4.415320 1.022240 -35.754462 -3.490722 0.995940 -53.284023 -1.956908 -3.441893 -9.382487 -12.134179 -0.061471 -3.828664 2.986287 0.030970 0.105010 -0.053380 0.011300 32.893263 5.679578 2.066531 56.265080 2.557122 -5.860177 9.200978 15.469490 -0.179680 2.628594 -1.275383 -0.069390 0.019610 0.024020 -0.040670 
0.479950 16.408710 -0.531040 -1.229885 -0.690607 5.470647 -15.177128 13.293340 2.827622 4.643920 -1.276526 -11.609421 -4.065604 4.024350 5.613623 -0.085723 3.103273 3.508610 -0.001450 -0.056650 0.040020 18.220017 -10.952332 2.669702 -8.542204 0.514783 -12.680892 3.098701 -3.105876 4.897085 0.018976 -2.871595 3.382828 -0.005780 0.112700 0.056700 -3.483306 -1.542325 -7.072806 5.468301 -0.416308 4.138598 -1.385083 -0.366825 -0.183656 1.569365 -2.290670 -4.890620 -5.993623 4.423444 37.470970 -1.603120 4.570650 0.987330 -35.650292 -3.205504 0.865242 -53.412426 -2.059864 -3.406825 -9.308289 -12.131214 -0.063421 -3.833619 2.985813 0.027880 0.106500 -0.053520 0.012490 32.874148 5.463351 1.975457 56.293053 2.532555 -5.885757 8.688114 15.332070 -0.234977 2.631227 -1.272509 -0.067520 0.019510 0.023700 -0.038910 
0.489120 16.407260 -0.530760 -1.198311 -0.624253 5.603886 -15.175163 13.275497 2.836081 4.762983 -1.288204 -11.652658 -4.441416 4.083344 5.506769 -0.078757 3.133809 3.501062 -0.003530 -0.055900 0.034060 18.224227 -10.944810 2.652941 -8.782487 0.526238 -12.844724 3.190922 -3.129647 5.012952 0.023505 -2.877094 3.381627 -0.004000 0.122590 0.057950 -3.494283 -1.535780 -7.056772 5.524253 -0.430118 4.069344 -1.531965 -0.381684 -0.178445 1.596155 -2.308411 -4.782500 -5.938882 4.609676 37.104304 -1.473650 4.726420 1.016870 -35.509304 -2.954987 0.739073 -53.509788 -2.167215 -3.369253 -9.016920 -11.985175 -0.089568 -3.845526 2.983872 0.021270 0.113740 -0.058530 0.016100 32.654110 5.172891 1.867082 56.437244 2.530121 -5.896144 8.524303 15.282039 -0.261745 2.632279 -1.272805 -0.068550 0.021990 0.024650 -0.035330 
0.485350 16.409690 -0.531450 -1.307011 -0.679541 5.637101 -15.179388 13.289510 2.831847 4.799971 -1.283552 -11.615904 -4.155420 4.014470 5.370921 -0.078616 3.111383 3.509035 -0.003710 -0.053290 0.032730 18.220525 -10.942054 2.649419 -8.682910 0.536967 -12.919759 3.112980 -3.115976 5.088580 0.024720 -2.860437 3.388104 -0.004360 0.122640 0.056830 -3.481683 -1.561797 -7.050564 5.468233 -0.392775 4.079631 -1.462327 -0.348684 -0.149645 1.585103 -2.323790 -4.795746 -5.989782 4.812710 37.201248 -1.333320 4.898460 1.027120 -35.273291 -2.858090 0.700776 -53.697860 -2.298639 -3.371840 -8.964319 -12.180263 -0.081895 -3.845898 2.981912 0.022020 0.112660 -0.056130 0.017070 32.453714 5.064745 1.865718 56.603255 2.418933 -6.002722 8.335583 15.355270 -0.282303 2.633567 -1.268834 -0.067700 0.022960 0.023680 -0.034160 
0.486870 16.412060 -0.530780 -1.348562 -0.747509 5.662150 -15.180243 13.296294 2.837791 4.883285 -1.281239 -11.569202 -4.141246 3.996201 5.212940 -0.074407 3.110493 3.509162 -0.004470 -0.053780 0.031980 18.217723 -10.936701 2.643162 -8.832172 0.540614 -12.998589 3.204914 -3.141152 5.183812 0.024457 -2.857220 3.389473 -0.007010 0.121060 0.055250 -3.475848 -1.586340 -7.053940 5.477199 -0.385711 4.090851 -1.489434 -0.337121 -0.154603 1.600554 -2.389533 -4.852302 -6.148155 5.029961 37.412784 -1.207920 5.046630 1.098860 -35.059422 -2.784595 0.685100 -53.882149 -2.314406 -3.423269 -8.697131 -12.323892 -0.097603 -3.843645 2.978135 0.025660 0.109700 -0.053330 0.017610 32.206165 5.007222 1.914999 56.740838 2.227760 -6.154424 8.062237 15.462018 -0.306098 2.635004 -1.263301 -0.067510 0.023060 0.022910 -0.034250 
0.489350 16.413790 -0.528420 -1.370993 -0.793990 5.711471 -15.181413 13.292219 2.848245 5.191798 -1.285129 -11.593255 -4.518553 4.062487 5.101962 -0.062150 3.142249 3.496033 -0.005390 -0.053050 0.029680 18.214130 -10.922130 2.635765 -9.140154 0.543409 -13.070647 3.340645 -3.166062 5.176446 0.021852 -2.859897 3.387583 -0.010160 0.119490 0.053710 -3.468568 -1.611674 -7.060481 5.463762 -0.419378 4.072676 -1.512905 -0.368887 -0.127308 1.609436 -2.438231 -4.947280 -6.260079 5.247281 37.555596 -0.964960 5.154400 1.135310 -34.637620 -2.715452 0.713048 -54.124228 -2.269949 -3.497907 -8.395565 -12.440767 -0.117811 -3.840942 2.975436 0.028540 0.105290 -0.049670 0.018380 31.771016 4.937761 1.966063 56.941592 2.047859 -6.305821 7.849862 15.564211 -0.322946 2.638984 -1.257460 -0.065640 0.022740 0.022070 -0.032480 
0.494120 16.413010 -0.526000 -1.403933 -0.845362 5.810149 -15.182242 13.280142 2.858308 5.715408 -1.299769 -11.693066 -5.116195 4.180170 5.035450 -0.052079 3.204728 3.472768 -0.006170 -0.053100 0.026870 18.210365 -10.897207 2.625226 -9.703426 0.559526 -13.248626 3.620330 -3.211639 5.151261 0.021662 -2.872982 3.380777 -0.010130 0.121580 0.052690 -3.462279 -1.641998 -7.061544 5.497672 -0.429770 4.061595 -1.452079 -0.378526 -0.083812 1.573817 -2.559476 -4.974764 -6.488049 5.378314 37.297671 -0.847520 5.178380 1.013750 -34.053832 -2.453301 0.642540 -54.422104 -2.320456 -3.530117 -8.346448 -12.576167 -0.119359 -3.845083 2.971463 0.029760 0.104430 -0.049990 0.019340 31.250906 4.720363 1.986176 56.946117 1.787772 -6.504655 7.641031 15.778702 -0.342151 2.637612 -1.253718 -0.066710 0.025180 0.023160 -0.031510 
